<?xml version="1.0" encoding="UTF-8"?>
<!DOCTYPE svg PUBLIC "-//W3C//DTD SVG 1.1//EN" "http://www.w3.org/Graphics/SVG/1.1/DTD/svg11.dtd">
<svg xmlns="http://www.w3.org/2000/svg" xmlns:xlink="http://www.w3.org/1999/xlink" version="1.1" width="450px" height="291px">
  <g transform="matrix(0.333,0,0,0.3333,0.0,0.0)">
    <path fill="#fefefe" d="M -0.5,-0.5 C 449.833,-0.5 900.167,-0.5 1350.5,-0.5C 1350.5,290.5 1350.5,581.5 1350.5,872.5C 900.167,872.5 449.833,872.5 -0.5,872.5C -0.5,581.5 -0.5,290.5 -0.5,-0.5 Z" />
    <path fill="#000000" d="M 83.5,41.5 C 477.833,41.3333 872.167,41.5 1266.5,42C 1295.42,44.9181 1311.92,60.7515 1316,89.5C 1316.67,320.5 1316.67,551.5 1316,782.5C 1311.92,811.249 1295.42,827.082 1266.5,830C 872.167,830.667 477.833,830.667 83.5,830C 54.1293,826.963 37.6293,810.796 34,781.5C 33.3333,551.167 33.3333,320.833 34,90.5C 37.8054,61.1939 54.3054,44.8606 83.5,41.5 Z" />
    <path fill="#fefefe" d="M 84.5,92.5 C 478.167,92.5 871.833,92.5 1265.5,92.5C 1265.5,321.5 1265.5,550.5 1265.5,779.5C 871.833,779.5 478.167,779.5 84.5,779.5C 84.5,550.5 84.5,321.5 84.5,92.5 Z" />
    <path fill="#bcbcbc" d="M 177.5,118.5 C 156.167,118.5 134.833,118.5 113.5,118.5C 113.5,120.167 113.5,121.833 113.5,123.5C 112.539,121.735 112.205,119.735 112.5,117.5C 134.34,117.169 156.006,117.503 177.5,118.5 Z" />
    <path fill="#010101" d="M 177.5,118.5 C 186.401,195.776 194.901,273.109 203,350.5C 241.256,273.654 279.256,196.654 317,119.5C 326.417,118.515 335.917,118.182 345.5,118.5C 355.257,195.552 365.423,272.552 376,349.5C 412.423,272.985 448.59,196.318 484.5,119.5C 506.5,118.167 528.5,118.167 550.5,119.5C 507.605,207.289 465.271,295.289 423.5,383.5C 455.763,382.696 486.429,389.196 515.5,403C 546.042,421.628 558.542,448.795 553,484.5C 545.062,544.262 513.562,586.095 458.5,610C 415.439,626.171 371.439,629.005 326.5,618.5C 325.5,618.833 324.5,619.167 323.5,619.5C 304.93,662.634 286.93,705.968 269.5,749.5C 252.418,750.733 235.418,750.4 218.5,748.5C 213.833,747.833 209.167,747.167 204.5,746.5C 247.116,643.619 289.949,540.953 333,438.5C 333.667,435.167 333.667,431.833 333,428.5C 323.989,373.431 314.655,318.431 305,263.5C 266.244,340.011 227.744,416.678 189.5,493.5C 180.859,494.498 172.192,494.831 163.5,494.5C 147.163,370.807 130.496,247.14 113.5,123.5C 113.5,121.833 113.5,120.167 113.5,118.5C 134.833,118.5 156.167,118.5 177.5,118.5 Z" />
    <path fill="#010101" d="M 630.5,119.5 C 656.622,117.598 681.956,121.098 706.5,130C 730.225,142.579 743.058,162.412 745,189.5C 745.586,200.855 745.253,212.188 744,223.5C 736.471,262.843 729.971,302.343 724.5,342C 723.472,350.24 725.305,357.74 730,364.5C 733.215,366.671 736.048,369.171 738.5,372C 736.132,382.378 734.465,392.878 733.5,403.5C 718.084,404.736 703.084,402.903 688.5,398C 678.273,393.439 671.106,385.939 667,375.5C 634.976,399.442 599.142,408.275 559.5,402C 523.477,388.816 506.977,362.982 510,324.5C 512.417,304.244 520.084,286.244 533,270.5C 574.664,227.224 625.164,210.891 684.5,221.5C 685.06,212.021 684.227,202.688 682,193.5C 676.506,182.69 667.673,176.523 655.5,175C 622.555,170.852 594.055,180.018 570,202.5C 563.836,184.463 558.336,166.463 553.5,148.5C 577.075,133.089 602.741,123.422 630.5,119.5 Z" />
    <path fill="#010101" d="M 743.5,120.5 C 765.075,120.173 786.575,120.506 808,121.5C 819.462,177.809 830.795,234.142 842,290.5C 873.833,234.167 905.667,177.833 937.5,121.5C 958.823,120.5 980.156,120.167 1001.5,120.5C 945.71,214.066 889.376,307.399 832.5,400.5C 825.197,401.497 817.863,401.831 810.5,401.5C 788.315,307.76 765.981,214.093 743.5,120.5 Z" />
    <path fill="#fdfdfd" d="M 644.5,265.5 C 654.923,265.155 665.09,266.488 675,269.5C 672.414,287.839 669.414,306.172 666,324.5C 651.062,340.22 632.895,350.054 611.5,354C 599.406,355.874 588.073,353.874 577.5,348C 570.269,341.351 567.769,333.185 570,323.5C 571.557,313.389 575.557,304.389 582,296.5C 598.991,278.254 619.824,267.921 644.5,265.5 Z" />
    <path fill="#bdbdbd" d="M 1040.5,371.5 C 1060.33,370.503 1080.33,370.17 1100.5,370.5C 1100.78,372.415 1100.45,374.081 1099.5,375.5C 1099.5,374.167 1099.5,372.833 1099.5,371.5C 1079.83,371.5 1060.17,371.5 1040.5,371.5 Z" />
    <path fill="#010101" d="M 1040.5,371.5 C 1060.17,371.5 1079.83,371.5 1099.5,371.5C 1099.5,372.833 1099.5,374.167 1099.5,375.5C 1086.76,445.717 1074.6,516.051 1063,586.5C 1098.98,550.353 1135.15,514.353 1171.5,478.5C 1195.67,478.169 1219.67,478.502 1243.5,479.5C 1207.04,514.797 1170.7,550.297 1134.5,586C 1159.99,640.964 1184.99,696.13 1209.5,751.5C 1188.34,752.497 1167.01,752.831 1145.5,752.5C 1126.71,710.817 1107.71,669.15 1088.5,627.5C 1074.89,638.272 1061.72,649.606 1049,661.5C 1043.9,692.048 1038.4,722.382 1032.5,752.5C 1012.66,752.83 992.993,752.497 973.5,751.5C 995.191,624.581 1017.52,497.914 1040.5,371.5 Z" />
    <path fill="#fdfdfd" d="M 408.5,566.5 C 403.924,566.438 399.591,567.105 395.5,568.5C 383.797,568.768 372.131,568.268 360.5,567C 355.491,566.417 350.824,564.917 346.5,562.5C 363.423,522.665 379.757,482.665 395.5,442.5C 396.5,442.5 397.5,442.5 398.5,442.5C 402.122,442.678 405.456,442.011 408.5,440.5C 430.917,436.821 452.25,439.988 472.5,450C 482.565,457.802 487.231,468.136 486.5,481C 483.064,529.942 457.064,558.442 408.5,566.5 Z" />
    <path fill="#7b7b7b" d="M 408.5,440.5 C 405.456,442.011 402.122,442.678 398.5,442.5C 401.589,441.215 404.922,440.549 408.5,440.5 Z" />
    <path fill="#010101" d="M 634.5,470.5 C 658.867,468.576 682.534,471.743 705.5,480C 728.879,490.727 742.379,508.893 746,534.5C 746.667,546.5 746.667,558.5 746,570.5C 738.583,611.417 731.75,652.417 725.5,693.5C 724.695,705.135 729.028,714.135 738.5,720.5C 738.833,721.667 739.167,722.833 739.5,724C 737.795,733.456 736.295,742.956 735,752.5C 720.801,755.346 706.635,754.512 692.5,750C 681.392,745.225 673.225,737.391 668,726.5C 646.238,743.649 621.405,753.149 593.5,755C 553.336,759.019 526.503,742.186 513,704.5C 506.885,667.177 517.719,635.677 545.5,610C 586.165,575.429 632.831,562.929 685.5,572.5C 689.868,540.703 676.034,525.036 644,525.5C 615.8,524.728 591.633,534.061 571.5,553.5C 565.263,535.629 559.763,517.629 555,499.5C 579.203,483.378 605.703,473.712 634.5,470.5 Z" />
    <path fill="#010101" d="M 899.5,470.5 C 935.102,467.316 967.769,475.483 997.5,495C 1000.04,497.711 1002.71,500.211 1005.5,502.5C 992.852,516.982 980.019,531.316 967,545.5C 962.091,539.121 955.924,534.288 948.5,531C 899.09,512.47 860.257,525.304 832,569.5C 816.35,598.414 811.016,629.08 816,661.5C 823.002,685.825 839.168,699.325 864.5,702C 888.909,704.231 911.576,698.898 932.5,686C 937.969,682.697 943.302,679.197 948.5,675.5C 949.799,676.09 950.632,677.09 951,678.5C 955.698,694.262 960.198,710.095 964.5,726C 964.215,727.89 963.215,729.223 961.5,730C 918.328,753.272 872.661,760.272 824.5,751C 785.662,738.495 761.828,712.329 753,672.5C 747.251,627.99 755.584,586.323 778,547.5C 806.462,503.009 846.962,477.343 899.5,470.5 Z" />
    <path fill="#bebebe" d="M 1171.5,478.5 C 1195.67,477.171 1220,477.171 1244.5,478.5C 1244.38,479.107 1244.04,479.44 1243.5,479.5C 1219.67,478.502 1195.67,478.169 1171.5,478.5 Z" />
    <path fill="#999999" d="M 408.5,566.5 C 404.409,567.895 400.076,568.562 395.5,568.5C 399.591,567.105 403.924,566.438 408.5,566.5 Z" />
    <path fill="#fcfcfc" d="M 643.5,616.5 C 654.959,616.185 666.292,617.185 677.5,619.5C 673.906,637.728 670.74,656.062 668,674.5C 648.751,696.375 624.584,706.542 595.5,705C 575.513,701.985 567.68,690.485 572,670.5C 574.996,659.515 580.496,650.015 588.5,642C 604.144,627.622 622.477,619.122 643.5,616.5 Z" />
    <path fill="#4c4c4c" d="M 204.5,746.5 C 209.167,747.167 213.833,747.833 218.5,748.5C 213.456,748.827 208.456,748.494 203.5,747.5C 203.624,746.893 203.957,746.56 204.5,746.5 Z" />
    <path fill="#3f403f" d="M 1209.5,751.5 C 1210.04,751.56 1210.38,751.893 1210.5,752.5C 1188.67,753.828 1167,753.828 1145.5,752.5C 1167.01,752.831 1188.34,752.497 1209.5,751.5 Z" />
    <path fill="#414141" d="M 973.5,751.5 C 992.993,752.497 1012.66,752.83 1032.5,752.5C 1012.66,753.828 992.663,753.828 972.5,752.5C 972.624,751.893 972.957,751.56 973.5,751.5 Z" />
  </g>
</svg>
